<?xml version="1.0" encoding="iso-8859-1"?>
<!-- Uploaded to: SVG Repo, www.svgrepo.com, Generator: SVG Repo Mixer Tools -->
<svg height="800px" width="800px" version="1.1" id="Layer_1" xmlns="http://www.w3.org/2000/svg" xmlns:xlink="http://www.w3.org/1999/xlink" 
	 viewBox="0 0 511.881 511.881" xml:space="preserve">
<g>
	<path style="fill:#F0C419;" d="M370.697,255.881L370.697,255.881h-35.31v-97.103H176.49v97.103h-35.31v2.781
		c0,9.446-0.865,18.873-2.578,28.16l-41.56,198.577l79.448,26.483l36.14-159.011c4.679-20.586,22.978-35.196,44.085-35.196l0,0
		c20.392,0,38.259,13.647,43.617,33.315l43.882,160.892l79.448-26.483l-49.293-195.964
		C371.932,278.418,370.697,267.163,370.697,255.881"/>
	<path style="fill:#D0E8F9;" d="M375.749,29.273c-3.363-3.363-7.053-6.374-11.017-8.986l0,0c-6.974-4.652-14.724-8.086-22.908-9.887
		C279.625-3.292,232.035-3.521,170.331,10.047c-8.501,1.863-16.516,5.544-23.702,10.461c-3.628,2.472-7.009,5.27-10.108,8.377
		l-101.27,94.579L80.66,167.54l60.522-52.904v141.241h35.31v-97.103h158.897v97.103h35.31V114.636l61.793,52.966l44.138-44.138
		L375.749,29.273z"/>
	<g>
		<path style="fill:#F29C1F;" d="M202.972,185.26c-4.873,0-8.828-3.955-8.828-8.828v-17.655c0-4.873,3.955-8.828,8.828-8.828
			c4.873,0,8.828,3.955,8.828,8.828v17.655C211.8,181.306,207.845,185.26,202.972,185.26"/>
		<path style="fill:#F29C1F;" d="M308.903,185.26c-4.873,0-8.828-3.955-8.828-8.828v-17.655c0-4.873,3.955-8.828,8.828-8.828
			s8.828,3.955,8.828,8.828v17.655C317.731,181.306,313.776,185.26,308.903,185.26"/>
		<path style="fill:#F29C1F;" d="M291.248,2.08v156.698h35.31V7.377C314.394,5.055,302.653,3.281,291.248,2.08"/>
		<path style="fill:#F29C1F;" d="M185.317,7.091v151.684h35.31V1.901C209.205,3.057,197.473,4.787,185.317,7.091"/>
	</g>
	<path style="fill:#3B97D3;" d="M220.628,1.943v30.95c10.002,7.009,22.166,11.123,35.31,11.123s25.309-4.122,35.31-11.123V2.137
		C267.326-0.378,244.471-0.449,220.628,1.943"/>
	<path style="fill:#F29C1F;" d="M282.421,220.571h-52.966c-4.873,0-8.828-3.955-8.828-8.828c0-4.873,3.955-8.828,8.828-8.828h52.966
		c4.873,0,8.828,3.955,8.828,8.828C291.248,216.616,287.293,220.571,282.421,220.571"/>
</g>
</svg>